<svg xmlns="http://www.w3.org/2000/svg" width="160" height="148" viewBox="0 0 160 148" version="1.1">
	<path d="M 1.655 1.829 C 0.148 3.494, -0 9.961, -0 74.174 C -0 141.219, 0.090 144.771, 1.829 146.345 C 3.497 147.855, 10.377 148, 80.154 148 L 156.651 148 158.826 145.686 L 161 143.371 161 72.627 C 161 31.745, 160.626 2.113, 160.113 2.430 C 159.626 2.731, 158.671 2.308, 157.991 1.489 C 156.916 0.194, 146.758 -0, 80.033 -0 C 6.975 -0, 3.231 0.087, 1.655 1.829 M 0.474 74 C 0.474 113.325, 0.598 129.412, 0.750 109.750 C 0.901 90.088, 0.901 57.913, 0.750 38.250 C 0.598 18.587, 0.474 34.675, 0.474 74 M 34 53.500 L 34 68 37 68 L 40 68 40 53.500 L 40 39 37 39 L 34 39 34 53.500 M 44.590 40.627 C 43.225 44.184, 48.478 46.539, 51 43.500 C 51.993 42.303, 51.993 41.697, 51 40.500 C 49.346 38.507, 45.373 38.585, 44.590 40.627 M 55 53.402 L 55 67.804 62.403 67.833 C 66.656 67.850, 70.509 67.348, 71.458 66.654 C 75.247 63.884, 75.187 53.074, 71.359 48.844 C 70 47.342, 68.586 46.925, 65.770 47.193 L 62 47.553 62 43.276 C 62 39.056, 61.954 39, 58.500 39 L 55 39 55 53.402 M 98 53.500 L 98 68 101 68 C 102.667 68, 104 67.467, 104 66.800 C 104 65.867, 104.267 65.867, 105.200 66.800 C 106.519 68.119, 111.861 68.396, 113.600 67.235 C 115.756 65.795, 117 62.057, 117 57.020 C 117 50.334, 113.730 46.579, 108.443 47.196 L 105 47.598 105 43.299 C 105 39.052, 104.957 39, 101.500 39 L 98 39 98 53.500 M 14.401 49.508 C 13.021 50.888, 12.168 52.463, 12.505 53.008 C 13.307 54.305, 19 54.298, 19 53 C 19 51.480, 22.711 51.806, 23.315 53.379 C 23.693 54.363, 22.701 54.911, 19.844 55.294 C 14.918 55.955, 12 58.449, 12 62 C 12 66.500, 14.600 67.889, 23.022 67.889 L 30.510 67.889 30.191 59.694 C 29.908 52.445, 29.584 51.241, 27.380 49.250 C 23.837 46.050, 17.737 46.172, 14.401 49.508 M 45 57.500 L 45 68 48 68 L 51 68 51 57.500 L 51 47 48 47 L 45 47 45 57.500 M 80.500 48.195 C 78.169 49.517, 77.037 50.997, 77.015 52.750 C 76.994 54.486, 82.477 54.335, 83.951 52.559 C 85.298 50.935, 88 51.549, 88 53.479 C 88 54.183, 86.218 55.029, 83.986 55.386 C 76.925 56.515, 73.858 61.858, 77.932 65.932 C 79.511 67.511, 81.261 67.858, 87.530 67.833 L 95.197 67.803 94.848 59.313 C 94.541 51.823, 94.222 50.598, 92.139 48.912 C 89.503 46.777, 83.637 46.416, 80.500 48.195 M 122.189 49.039 C 120.985 50.160, 120 51.735, 120 52.539 C 120 54.509, 125.366 54.469, 127.010 52.488 C 127.965 51.337, 128.593 51.247, 129.633 52.110 C 131.851 53.951, 131.241 54.706, 126.986 55.386 C 119.925 56.515, 116.858 61.858, 120.932 65.932 C 122.512 67.512, 124.261 67.858, 130.552 67.833 L 138.240 67.803 137.792 59.250 C 137.403 51.851, 137.034 50.446, 135.060 48.848 C 131.889 46.279, 125.042 46.381, 122.189 49.039 M 62.667 52.667 C 62.300 53.033, 62 55.538, 62 58.233 C 62 62.988, 62.081 63.124, 64.750 62.816 C 67.148 62.541, 67.540 62.011, 67.815 58.680 C 68.226 53.686, 65.192 50.142, 62.667 52.667 M 105.701 52.632 C 105.316 53.018, 105 55.508, 105 58.167 C 105 62.646, 105.182 63, 107.481 63 C 109.328 63, 110.131 62.326, 110.625 60.360 C 111.821 55.592, 108.288 50.046, 105.701 52.632 M 18.700 60.341 C 18.417 61.078, 18.581 62.316, 19.064 63.091 C 20.145 64.824, 23.322 63.190, 23.823 60.643 C 24.226 58.597, 19.476 58.317, 18.700 60.341 M 83.336 60.567 C 83.005 61.429, 83.169 62.569, 83.700 63.100 C 85.136 64.536, 88 63.066, 88 60.893 C 88 58.549, 84.212 58.285, 83.336 60.567 M 126.336 60.567 C 125.429 62.931, 127.557 64.613, 129.458 63.035 C 130.306 62.331, 131 61.135, 131 60.378 C 131 58.477, 127.077 58.636, 126.336 60.567 M 14 80.393 C 14 81.709, 13.325 83.045, 12.500 83.362 C 11.675 83.678, 11 84.640, 11 85.500 C 11 86.360, 11.675 87.322, 12.500 87.638 C 13.614 88.066, 14 89.839, 14 94.536 C 14 101.932, 15.436 104, 20.571 104 C 23.562 104, 24 103.681, 24 101.500 C 24 100.125, 23.663 99.053, 23.250 99.118 C 20.509 99.551, 20 98.689, 20 93.617 C 20 89.074, 20.312 88.152, 22 87.710 C 23.100 87.423, 24 86.428, 24 85.500 C 24 84.572, 23.100 83.577, 22 83.290 C 20.706 82.951, 20 81.926, 20 80.383 C 20 78.402, 19.494 78, 17 78 C 14.502 78, 14 78.401, 14 80.393 M 28.923 85.923 C 22.564 92.282, 26.748 104, 35.376 104 C 39.001 104, 44 102.239, 44 100.962 C 44 99.029, 41.082 97.886, 38.997 99.002 C 37.308 99.906, 36.355 99.807, 34.401 98.527 C 30.776 96.152, 32.340 95, 39.190 95 L 45.262 95 44.665 91.250 C 43.390 83.242, 34.584 80.262, 28.923 85.923 M 48 93.500 L 48 104 50.958 104 L 53.916 104 54.208 96.261 C 54.459 89.610, 54.764 88.471, 56.380 88.162 C 59.145 87.634, 59.968 89.709, 59.985 97.250 L 60 104 62.958 104 L 65.916 104 66.208 96.250 C 66.478 89.078, 66.668 88.476, 68.750 88.180 C 70.924 87.872, 71 88.134, 71 95.930 L 71 104 74.625 104 L 78.251 104 77.806 95.528 C 77.472 89.160, 76.906 86.553, 75.526 85.028 C 73.402 82.682, 70.186 82.413, 67.525 84.358 C 65.944 85.514, 65.253 85.478, 62.885 84.119 C 60.619 82.819, 59.538 82.736, 57.056 83.673 C 55.276 84.345, 53.774 84.444, 53.445 83.912 C 53.135 83.410, 51.784 83, 50.441 83 C 48.008 83, 48 83.034, 48 93.500 M 32.628 89.528 C 31.689 91.973, 31.721 92, 35.573 92 C 38.436 92, 39.081 91.652, 38.815 90.250 C 38.368 87.897, 33.473 87.325, 32.628 89.528" stroke="none" fill="black" fill-rule="evenodd"/>
</svg>